<?xml version="1.0" encoding="utf-8"?>
<!-- Generator: Adobe Illustrator 19.0.0, SVG Export Plug-In . SVG Version: 6.00 Build 0)  -->
<svg version="1.1" id="Layer_1" xmlns="http://www.w3.org/2000/svg" xmlns:xlink="http://www.w3.org/1999/xlink" x="0px" y="0px"
	 viewBox="0 0 544 146" style="enable-background:new 0 0 544 146;" xml:space="preserve">
<style type="text/css">
	.st0{fill:#0B0029;}
	.st1{fill:url(#SVGID_1_);}
</style>
<g>
	<g>
		<path class="st0" d="M216.8,108.7c-12.8,0-19.5-8.9-19.5-17.7c0-1.6,1.2-2.9,2.9-2.9c1.5,0,2.9,1.2,2.9,2.9c0,5.8,4.3,12,13.8,12
			c9.5,0,13.9-6.2,13.9-12c0-7.8-5.5-9.7-14.4-12.3c-7.8-2.3-17.7-5.1-17.7-16.4c0-8.2,6.2-16.5,18.2-16.5c12,0,18.3,8.3,18.3,16.5
			c0,1.6-1.2,2.9-2.9,2.9s-2.9-1.2-2.9-2.9c0-5.2-3.9-10.9-12.6-10.9c-8.6,0-12.5,5.7-12.5,10.9c0,6.7,5.1,8.5,13.6,11
			c8.2,2.4,18.6,5.4,18.6,17.7C236.5,99.8,229.7,108.7,216.8,108.7z"/>
		<path class="st0" d="M248,48.6v57.3c0,1.6-1.2,2.9-2.9,2.9s-2.9-1.2-2.9-2.9V48.6c0-1.6,1.2-2.9,2.9-2.9S248,47,248,48.6z"/>
		<path class="st0" d="M296.5,60.6c-1.6,0-2.9,1.2-2.9,2.8v5c-4.1-4.8-10.2-7.8-17.1-7.8c-12.9,0-22.7,10.3-22.7,24.1
			c0,13.7,9.8,24.1,22.7,24.1c7,0,13-2.9,17.1-7.8v5c0,1.6,1.2,2.9,2.9,2.9s2.9-1.2,2.9-2.9V63.3C299.3,61.8,298.1,60.6,296.5,60.6z
			 M276.5,103c-9.7,0-17-7.9-17-18.4c0-10.5,7.3-18.5,17-18.5c9.8,0,17.1,7.9,17.1,18.5C293.6,95.1,286.3,103,276.5,103z"/>
		<path class="st0" d="M319.4,108.7c-6.6,0-12.1-3.1-14.4-8.2c-0.6-1.4,0-3.1,1.4-3.8c1.4-0.6,3.1,0,3.7,1.4
			c1.1,2.4,4.1,4.9,9.3,4.9c6.5,0,10-4.2,10-8.2c0-5.3-3.2-6.6-10.6-8.5c-6.2-1.6-14.1-3.6-14.1-12.8c0-3.3,1.4-6.5,3.8-8.9
			c2-1.9,5.4-4.1,10.9-4.1c6.2,0,11.2,2.9,13.5,7.6c0.7,1.4,0.1,3.1-1.3,3.7c-1.4,0.7-3.1,0.1-3.8-1.3c-1-2.1-3.7-4.4-8.3-4.4
			c-6.6,0-9,4.5-9,7.4c0,4.4,2.9,5.5,9.8,7.2c6.2,1.6,14.9,3.7,14.9,14c0,3.5-1.5,7-4.1,9.5C328.9,106.3,325.3,108.7,319.4,108.7z"
			/>
		<path class="st0" d="M379.4,81.1v24.8c0,1.6-1.2,2.9-2.9,2.9c-1.5,0-2.9-1.2-2.9-2.9V81.1c0-8.5-5.9-14.9-13.7-14.9
			s-13.8,6.4-13.8,14.9v0.4c0,0.1,0,0.2,0,0.3v24.1c0,1.6-1.2,2.9-2.9,2.9c-1.5,0-2.9-1.2-2.9-2.9V48.6c0-1.6,1.3-2.9,2.9-2.9
			c1.6,0,2.9,1.2,2.9,2.9v17.7c3.5-3.6,8.3-5.7,13.8-5.7C371,60.6,379.4,69.4,379.4,81.1z"/>
		<path class="st0" d="M411.5,88.5c10.5-1.1,18.6-10.2,18.6-21.2c0-11.8-9.3-21.3-20.8-21.3h-19.7c-0.5,0-0.9,0.4-0.9,0.9v61
			c0,0.4,0.4,0.9,0.9,0.9s0.9-0.4,0.9-0.9V88.6H409l18.7,19.9c0.2,0.2,0.4,0.3,0.6,0.3s0.4-0.1,0.6-0.3c0.4-0.4,0.4-1,0-1.3
			L411.5,88.5z M390.6,86.7V47.8h18.8c10.5,0,19,8.7,19,19.4c0,10.7-8.5,19.4-19,19.4H390.6z"/>
		<path class="st0" d="M478.8,46.8c0,0.5-0.4,1-0.9,1h-21.2v60c0,0.4-0.4,0.9-0.9,0.9c-0.4,0-0.9-0.4-0.9-0.9v-60h-21.1
			c-0.5,0-0.9-0.4-0.9-1c0-0.4,0.4-0.9,0.9-0.9h44.1C478.3,45.9,478.8,46.4,478.8,46.8z"/>
		<path class="st0" d="M507.7,108.7c-16.9,0-30.7-14.1-30.7-31.4c0-17.3,13.7-31.4,30.7-31.4c8.8,0,17.2,3.9,23,10.7
			c0.4,0.4,0.3,1-0.1,1.3c-0.4,0.4-1,0.3-1.2-0.1c-5.5-6.4-13.4-10.1-21.7-10.1c-16,0-28.8,13.2-28.8,29.5
			c0,16.3,12.8,29.5,28.8,29.5c8.3,0,16.1-3.7,21.7-10.1c0.3-0.4,0.9-0.4,1.2-0.1c0.4,0.4,0.4,0.9,0.1,1.3
			C524.9,104.8,516.5,108.7,507.7,108.7z"/>
	</g>
	<g>
		<linearGradient id="SVGID_1_" gradientUnits="userSpaceOnUse" x1="13.5752" y1="74.1432" x2="151.5394" y2="74.1432">
			<stop  offset="0" style="stop-color:#00EBFD"/>
			<stop  offset="1" style="stop-color:#1A2AFC"/>
		</linearGradient>
		<path class="st1" d="M130,5.2H35.2c-11.9,0-21.6,9.7-21.6,21.6v94.8c0,11.9,9.7,21.6,21.6,21.6H130c11.9,0,21.6-9.7,21.6-21.6
			V26.7C151.5,14.8,141.9,5.2,130,5.2z"/>
		<path class="st0" d="M116.9,88.3c0,0.5,0,1,0,1.5c0,0,0,0,0,0l-34.5,34.5c0,0,0,0,0,0c-0.5,0-1,0-1.5,0l-6.3,0c0,0,0,0,0,0
			L116.9,82L116.9,88.3z M103.2,87.9L99.3,84l-23.7,23.7l3.9,3.9L103.2,87.9z M75.6,111.6c-1.1-1.1-2.8-1.1-3.9,0l-5.5,5.5
			c-1,1-1.1,2.5-0.3,3.6c1.1,1.4,3.1,1.4,4.2,0.3l5.5-5.5C76.7,114.4,76.7,112.7,75.6,111.6z M107.1,84l6.5-6.5c0.8-0.8,1-2,0.6-3
			c-0.7-1.8-3.1-2.3-4.5-0.9l-6.5,6.5c-1.1,1.1-1.1,2.8,0,3.9C104.3,85,106,85,107.1,84z M110.8,101.2l-0.1,0.1
			c-1.1,1.1-1.1,2.9,0,4l0,0c1.3,1.4,3.6,1,4.4-0.7c0-0.1,0.1-0.1,0.1-0.2C116.6,101.6,113,99,110.8,101.2z M104.4,111.5
			c-1.1-1.1-2.8-1.1-3.9,0l-0.3,0.3c-1.1,1.1-1.1,2.8,0,3.9c1,1,2.6,1.1,3.7,0.1c0.1-0.1,0.3-0.2,0.4-0.3
			C105.5,114.5,105.6,112.7,104.4,111.5L104.4,111.5z M99.7,119.1l-3.4-3.4c0,0-8.4,8.4-8.4,8.4C90.3,124.3,97.2,121.3,99.7,119.1z
			 M104.4,107.7l3.9,3.9c0.7-0.9,1.4-1.7,2.1-2.7l-3.6-3.6L104.4,107.7z M99.4,76.2l8.2-8.2c1-1,1.1-2.7,0.1-3.8l0,0
			c-1.1-1.2-2.9-1.2-4-0.1l-8.2,8.2c-1.1,1.1-1.1,2.8,0,3.9l0,0C96.5,77.3,98.3,77.3,99.4,76.2z M89.6,78.2l-7.9,7.9
			c-1.1,1.1-1.1,2.8,0,3.9v0c1.1,1.1,2.8,1.1,3.9,0l7.9-7.9c1.1-1.1,1.1-2.8,0-3.9h0C92.4,77.1,90.7,77.1,89.6,78.2z M73,102.6
			l6.7-6.7c1.1-1.1,1.1-2.8,0-3.9h0c-1.1-1.1-2.8-1.1-3.9,0l-6.7,6.7c-1.1,1.1-1.1,2.8,0,3.9l0,0C70.2,103.6,71.9,103.6,73,102.6z
			 M63.3,104.5l-6.5,6.5c-1.1,1.1-1.1,2.9,0.1,4l0,0c1.1,1,2.7,0.9,3.8-0.1l6.5-6.5c1.1-1.1,1.1-2.8,0-3.9h0
			C66.1,103.5,64.3,103.5,63.3,104.5z M108.4,65.8C108.4,65.9,108.3,65.9,108.4,65.8L108.4,65.8z M65.3,69.3l38.7-38.7l-5.5-2.3l0,0
			L61.5,65.4L65.3,69.3z M57.5,69.4l-3.7,3.7c-0.6,0.6-0.9,1.4-0.8,2.3c0.4,2.4,3.1,3.2,4.7,1.6l3.7-3.7c1.1-1.1,1.1-2.8,0-3.9l0,0
			C60.4,68.3,58.6,68.3,57.5,69.4z M64.5,40.8l0.2-0.2c1.1-1.1,1.1-2.9,0-4l0,0c-1.1-1.1-2.8-1.1-3.9,0c-0.8,0.7,0.5-0.5-0.3,0.3
			c-1,1.1-1,2.8,0.1,3.9l0,0C61.6,41.9,63.4,41.9,64.5,40.8z M76.7,34.7l-1.5,1.5c-1.1,1.1-1.1,2.8,0,3.9v0c1.1,1.1,2.8,1.1,3.9,0
			l1.5-1.5c1.1-1.1,1.1-2.8,0-3.9l0,0C79.5,33.6,77.7,33.6,76.7,34.7z M86.4,32.7l1.8-1.8c1.7-1.7,0.5-4.6-1.8-4.6c0,0,0,0-0.1,0
			c-0.8,0-1.5,0.3-2,0.8l-1.8,1.8c-1.1,1.1-1.1,2.8,0,3.8l0,0C83.6,33.8,85.3,33.8,86.4,32.7z M52.6,58.8l-1.3,1.3
			c-0.5,0.5-0.8,1.1-0.8,1.8c0,0.1,0,0.2,0,0.3v0c0,2.4,2.9,3.5,4.5,1.9l1.5-1.5c1-1,1-2.7,0-3.7l-0.1-0.1
			C55.3,57.7,53.6,57.7,52.6,58.8z M60.3,58.8L75.1,44l-3.9-3.9L56.4,54.9L60.3,58.8z M79.6,70.6L92.2,58c1.1-1.1,1.1-2.8,0-3.9v0
			c-1.1-1.1-2.8-1.1-3.9,0L75.7,66.7c-1.1,1.1-1.1,2.8,0,3.9l0,0C76.8,71.7,78.5,71.7,79.6,70.6z M110.6,35.5L110.6,35.5
			c-1.1-1-2.7-0.9-3.8,0.1L94.2,48.2c-1.1,1.1-1.1,2.8,0,3.9l0,0c1.1,1.1,2.8,1.1,3.9,0l12.6-12.6C111.8,38.4,111.7,36.6,110.6,35.5
			z M69.8,72.6l-10,10c-0.8,0.8-1.1,2.1-0.5,3.1c0.9,1.8,3.1,2,4.4,0.7l10-10c1.1-1.1,1.1-2.8,0-3.9l0,0
			C72.6,71.5,70.9,71.5,69.8,72.6z M70.6,34.7l0.2-0.2c1.1-1.1,1.1-2.8,0-3.9l0,0c-1.1-1.1-2.8-1.1-3.9,0c-0.7,0.7,0.5-0.5-0.2,0.3
			c-1,1.1-1,2.8,0.1,3.8v0C67.8,35.8,69.5,35.8,70.6,34.7z M58.5,46.9l0.2-0.2c1.1-1.1,1.1-2.8,0-3.9l0,0c-1.1-1.1-2.8-1.1-3.9,0
			c-0.8,0.7,0.5-0.5-0.2,0.3c-1,1.1-1,2.8,0.1,3.9l0,0C55.6,47.9,57.4,47.9,58.5,46.9z"/>
	</g>
</g>
</svg>
